DataType=double
version=3
OpenSimVersion=4.5
endheader
time	ground_force_1_vx	ground_force_1_vy	ground_force_1_vz	ground_force_1_px	ground_force_1_py	ground_force_1_pz	ground_moment_1_mx	ground_moment_1_my	ground_moment_1_mz	ground_force_2_vx	ground_force_2_vy	ground_force_2_vz	ground_force_2_px	ground_force_2_py	ground_force_2_pz	ground_moment_2_mx	ground_moment_2_my	ground_moment_2_mz
3	-61.87405552	663.3490163	56.10786553	0.8706972195898393	0	0.3977757242129668	0	4.855095006135878	0	0	0	0	0.8049871033955318	0	0.7420771517268261	0	0	0
3.005	-60.22429866	657.1299379	54.83974962	0.868157084838155	0	0.3977003720961529	0	4.596832446373014	0	0	0	0	0.8049871033955318	0	0.7420771517268261	0	0	0
3.01	-58.58947731	651.7474568	53.39953498	0.8655398241649422	0	0.3977063868158696	0	4.377004121885927	0	0	0	0	0.8049871033955318	0	0.7420771517268261	0	0	0
3.015	-57.03488541	647.0445684	51.6738446	0.8628884221250156	0	0.3977941261481052	0	4.218025768869731	0	0	0	0	0.8049871033955318	0	0.7420771517268261	0	0	0
3.02	-55.2659567	642.8721388	49.88901127	0.8598489430993735	0	0.3979671471745478	0	4.055757312851508	0	0	0	0	0.8049871033955318	0	0.7420771517268261	0	0	0
3.025	-53.03831597	639.1962712	48.34492257	0.8562624866416454	0	0.3982085086176818	0	3.836562631392293	0	0	0	0	0.8049871033955318	0	0.7420771517268261	0	0	0
3.03	-50.55067417	636.0347279	47.08131741	0.8523811510500521	0	0.3984890263895388	0	3.596914797122173	0	0	0	0	0.8049871033955318	0	0.7420771517268261	0	0	0
3.035	-48.14390754	633.4064562999999	45.91641024	0.8483835581131179	0	0.3987782457449731	0	3.401587419997905	0	0	0	0	0.8049871033955318	0	0.7420771517268261	0	0	0
3.04	-45.77061742	631.2962126	44.76226364	0.8440626282609095	0	0.3990707817584334	0	3.240690606534145	0	0	0	0	0.8049871033955318	0	0.7420771517268261	0	0	0
3.045	-43.11566615	629.6106264	43.71697567	0.8392045650831965	0	0.3993797658992225	0	3.04573964013433	0	0	0	0	0.8049871033955318	0	0.7420771517268261	0	0	0
3.05	-40.19541432	628.2362482	42.90736194	0.8339788047634277	0	0.3997122243092923	0	2.818296635633308	0	0	0	0	0.8049871033955318	0	0.7420771517268261	0	0	0
3.055	-37.39604552	627.1874433	42.31020228	0.8287269814935091	0	0.4000423850394166	0	2.619910838853678	0	0	0	0	0.8049871033955318	0	0.7420771517268261	0	0	0
3.06	-34.88406052	626.5038293	41.77693539	0.8235430202705423	0	0.4003609839032644	0	2.473234379440198	0	0	0	0	0.8049871033955318	0	0.7420771517268261	0	0	0
3.065	-32.40292346	626.0415805	41.1571227	0.8182502270737777	0	0.4007083218339322	0	2.334332575268472	0	0	0	0	0.8049871033955318	0	0.7420771517268261	0	0	0
3.07	-29.79736263	625.6264184	40.4365799	0.8126852531585862	0	0.401121452161341	0	2.161607000406976	0	0	0	0	0.8049871033955318	0	0.7420771517268261	0	0	0
3.075	-27.27987187	625.3445459	39.73338014	0.8069915066140634	0	0.4015644357973694	0	1.981500966152629	0	0	0	0	0.8049871033955318	0	0.7420771517268261	0	0	0
3.08	-25.0303072	625.4209397	39.15309551	0.8014828624417016	0	0.4019731431310328	0	1.825314734915534	0	0	0	0	0.8049871033955318	0	0.7420771517268261	0	0	0
3.085	-22.91702755	625.8775776	38.67101204	0.7961910898558808	0	0.4023583387147773	0	1.676946019003865	0	0	0	0	0.8049871033955318	0	0.7420771517268261	0	0	0
3.09	-20.73132868	626.608752	38.13216153	0.7908314848758855	0	0.4027573183419613	0	1.526723204237374	0	0	0	0	0.8049871033955318	0	0.7420771517268261	0	0	0
3.095	-18.46078007	627.6294641	37.47731595	0.7852706724107883	0	0.4031762191813837	0	1.379778149656656	0	0	0	0	0.8049871033955318	0	0.7420771517268261	0	0	0
3.1	-16.19737108	629.0929913	36.80390362	0.7797515151941901	0	0.403559961666463	0	1.238792803425228	0	0	0	0	0.8049871033955318	0	0.7420771517268261	0	0	0
3.105	-13.96609188	631.0119263	36.25715145	0.77444972483181	0	0.4038791057221304	0	1.121541613907437	0	0	0	0	0.8049871033955318	0	0.7420771517268261	0	0	0
3.11	-11.68037027	633.1459389	35.85143428	0.7691584591013938	0	0.4041747622098677	0	1.013525631955267	0	0	0	0	0.8049871033955318	0	0.7420771517268261	0	0	0
3.115	-9.193939073999999	635.2834927	35.46750035	0.7636674040925908	0	0.4044910133271223	0	0.9041229134225548	0	0	0	0	0.8049871033955318	0	0.7420771517268261	0	0	0
3.12	-6.483791914	637.4792208	35.01042997	0.7580580710689881	0	0.4047954644145757	0	0.802305601615612	0	0	0	0	0.8049871033955318	0	0.7420771517268261	0	0	0
3.125	-3.686837225	639.7896286	34.55000961	0.7525277723028764	0	0.4050433463464806	0	0.713349515596442	0	0	0	0	0.8049871033955318	0	0.7420771517268261	0	0	0
3.13	-0.8700634229999999	642.0490533	34.25284798	0.7470951714520012	0	0.4052480294700802	0	0.6336706132482066	0	0	0	0	0.8049871033955318	0	0.7420771517268261	0	0	0
3.135	2.082278433	644.0872269	34.19511721	0.74164774289803	0	0.4054419500927297	0	0.5300000603686756	0	0	0	0	0.8049871033955318	0	0.7420771517268261	0	0	0
3.14	5.234684633	645.9256145000001	34.29417118	0.7360690425610534	0	0.4056353746698002	0	0.4033171271827247	0	0	0	0	0.8049871033955318	0	0.7420771517268261	0	0	0
3.145	8.493103844	647.6540948000001	34.41448928	0.7303859641489336	0	0.4058230216020605	0	0.2983002693350056	0	0	0	0	0.8049871033955318	0	0.7420771517268261	0	0	0
3.15	11.77410351	649.3003459	34.5569323	0.7247030722319695	0	0.4060130396194954	0	0.2125433570057891	0	0	0	0	0.8049871033955318	0	0.7420771517268261	0	0	0
3.155	15.11240675	650.8731702	34.85801195	0.7190379080589223	0	0.4062209687672808	0	0.1080062510661093	0	0	0	0	0.8049871033955318	0	0.7420771517268261	0	0	0
3.16	18.53448247	652.4744162	35.39514549	0.7132972775635275	0	0.4064503039112752	0	-0.03364761650170012	0	0	0	0	0.8049871033955318	0	0.7420771517268261	0	0	0
3.165	21.96827897	654.2722288	36.04996596	0.7074213365682682	0	0.4066954780440325	0	-0.2041969692548471	0	0	0	0	0.8049871033955318	0	0.7420771517268261	0	0	0
3.17	25.33237409	656.383998	36.61198818	0.7014557330773171	0	0.406945850564668	0	-0.3651238933288252	0	0	0	0	0.8049871033955318	0	0.7420771517268261	0	0	0
3.175	28.64259802	658.8461906	37.03514051	0.6954715186197441	0	0.407194492816172	0	-0.5094527773171444	0	0	0	0	0.8049871033955318	0	0.7420771517268261	0	0	0
3.18	31.95317714	661.6822963	37.44446074	0.6894923355593287	0	0.4074237764719483	0	-0.6737734915166564	0	0	0	0	0.8049871033955318	0	0.7420771517268261	0	0	0
3.185	35.26613076	664.8437283	37.90808981	0.6835298651129502	0	0.4076272201992541	0	-0.8533506990924833	0	0	0	0	0.8049871033955318	0	0.7420771517268261	0	0	0
3.19	38.55813118	668.2062618	38.30672291	0.6776303612902745	0	0.4078153954166024	0	-1.008771016184975	0	0	0	0	0.8049871033955318	0	0.7420771517268261	0	0	0
3.195	41.85581976	671.6816308	38.49404044	0.6717841829337693	0	0.4079897007908392	0	-1.119215655413366	0	0	0	0	0.8049871033955318	0	0.7420771517268261	0	0	0
3.2	45.22799164	675.2233149	38.47848872	0.6659220472831714	0	0.4081330922940954	0	-1.18743025557843	0	0	0	0	0.8049871033955318	0	0.7420771517268261	0	0	0
3.205	48.70910417	678.6939555	38.41037109	0.660044189826835	0	0.4082463699894114	0	-1.244168805127533	0	0	0	0	0.8049871033955318	0	0.7420771517268261	0	0	0
3.21	52.25226373	681.9089004	38.41035986	0.654257975960752	0	0.4083470775658623	0	-1.30493157667885	0	0	0	0	0.8049871033955318	0	0.7420771517268261	0	0	0
3.215	55.77967116	684.8456277	38.45677676	0.6485991927554172	0	0.4084238447528563	0	-1.343048135453271	0	0	0	0	0.8049871033955318	0	0.7420771517268261	0	0	0
3.22	59.33382338	687.5252138	38.48361141	0.6429987463841834	0	0.4084740873574448	0	-1.358302028447725	0	0	0	0	0.8049871033955318	0	0.7420771517268261	0	0	0
3.225	63.04207434	689.8813731	38.47086062	0.6374163097207022	0	0.4085097038429195	0	-1.368535262823343	0	0	0	0	0.8049871033955318	0	0.7420771517268261	0	0	0
3.23	66.90140789	691.7874654	38.48594554	0.6318963533580891	0	0.4085499326504658	0	-1.374458178489891	0	0	0	0	0.8049871033955318	0	0.7420771517268261	0	0	0
3.235	70.78378637	693.2205675	38.62465175	0.6265029980485097	0	0.4085986833104831	0	-1.371151244124012	0	0	0	0	0.8049871033955318	0	0.7420771517268261	0	0	0
3.24	74.67737112	694.2154885	38.86415014	0.6212448335103002	0	0.4086424554451942	0	-1.347331992274127	0	0	0	0	0.8049871033955318	0	0.7420771517268261	0	0	0
3.245	78.71624469	694.6789487	39.11154086	0.6160033927244768	0	0.4087052307828153	0	-1.298613074398423	0	0	0	0	0.8049871033955318	0	0.7420771517268261	0	0	0
3.25	82.96239511	694.4917374	39.2662376	0.6106817669122295	0	0.4087922560115561	0	-1.232372409155209	0	0	0	0	0.8049871033955318	0	0.7420771517268261	0	0	0
3.255	87.31937342000001	693.5551626	39.34077077	0.6053233902323624	0	0.4088958018541407	0	-1.142058880062259	0	0	0	0	0.8049871033955318	0	0.7420771517268261	0	0	0
3.26	91.69663958	691.8120249999999	39.38628701	0.600058972719779	0	0.4089973676389531	0	-1.048603484131067	0	0	0	0	0.8049871033955318	0	0.7420771517268261	0	0	0
3.265	96.09801234	689.1823391	39.39335785	0.5948238320151813	0	0.4090979117733625	0	-0.9863967891404144	0	0	0	0	0.8049871033955318	0	0.7420771517268261	0	0	0
3.27	100.5841786	685.5155918	39.2738653	0.5894369517739669	0	0.4092266049301152	0	-0.9569359886396374	0	0	0	0	0.8049871033955318	0	0.7420771517268261	0	0	0
3.275	105.1458368	680.7086749	38.92614724	0.5838960314638784	0	0.4093873993058638	0	-0.9560675756405228	0	0	0	0	0.8049871033955318	0	0.7420771517268261	0	0	0
3.28	109.6452527	674.6869412	38.37482923	0.5783925239234282	0	0.4095705672469874	0	-0.966655632011836	0	0	0	0	0.8049871033955318	0	0.7420771517268261	0	0	0
3.285	113.9147854	667.3753283	37.69771119	0.5730388857659281	0	0.4097510139760573	0	-0.9761517480655755	0	4.969690525	20.09936248	-0.199523503	0.9802553130964795	0	0.5306469366029084	0	-0.3066562333640261	0
3.29	117.9038928	658.5663684	36.93009356	0.567705193584323	0	0.409942715049351	0	-1.010640970691826	0	10.16851272	40.13138003	2.012160846	0.9685530516408456	0	0.5300712138637419	0	-0.1662735293256157	0
3.295	121.6474275	648.0151092	36.00142215	0.5622870406478057	0	0.4101566793592371	0	-1.066413946768323	0	15.76876562	68.50072772999999	5.848870037	0.9637092854846767	0	0.5316831933325975	0	-0.0004345051889201867	0
3.3	125.0360662	635.517479	34.82058637	0.5569193570127553	0	0.4103610985411335	0	-1.098055178951608	0	20.29191173	105.1471907	11.51610353	0.9608335861299488	0	0.5334536744473708	0	0.2341084317162712	0
3.305	127.7770216	620.7448235000001	33.4270188	0.5517614758059588	0	0.4105473874878864	0	-1.08910264589953	0	21.90579868	148.5372915	18.60380518	0.9577355171499323	0	0.5346647933292717	0	0.4985057838417317	0
